<svg width="62" height="62" viewBox="0 0 62 62" fill="none" xmlns="http://www.w3.org/2000/svg">
<circle cx="31" cy="31" r="30.65" fill="#F3EFE8" stroke="#AA6F1A" stroke-width="0.7"/>
<path d="M9.15656 17.68C9.71656 17.7067 10.4499 17.7333 11.3566 17.76C12.2632 17.7867 13.1566 17.8 14.0366 17.8C15.2899 17.8 16.4899 17.7867 17.6366 17.76C18.7832 17.7333 19.5966 17.72 20.0766 17.72C22.8766 17.72 24.9832 18.3067 26.3966 19.48C27.8099 20.6533 28.5166 22.16 28.5166 24C28.5166 24.9333 28.3166 25.8533 27.9166 26.76C27.5432 27.64 26.9032 28.4533 25.9966 29.2C25.1166 29.92 23.9299 30.5067 22.4366 30.96V31.04C24.5432 31.3067 26.1832 31.8133 27.3566 32.56C28.5566 33.28 29.3966 34.1333 29.8766 35.12C30.3566 36.1067 30.5966 37.1467 30.5966 38.24C30.5966 39.76 30.2099 41.1067 29.4366 42.28C28.6899 43.4267 27.5966 44.3333 26.1566 45C24.7166 45.6667 22.9966 46 20.9966 46C20.4099 46 19.5299 45.9867 18.3566 45.96C17.1832 45.9067 15.7699 45.88 14.1166 45.88C13.1832 45.88 12.2632 45.8933 11.3566 45.92C10.4499 45.92 9.71656 45.9467 9.15656 46V45.2C10.0632 45.1467 10.7432 45.04 11.1966 44.88C11.6766 44.72 11.9966 44.4 12.1566 43.92C12.3166 43.44 12.3966 42.72 12.3966 41.76V21.92C12.3966 20.9333 12.3166 20.2133 12.1566 19.76C11.9966 19.28 11.6766 18.96 11.1966 18.8C10.7432 18.6133 10.0632 18.5067 9.15656 18.48V17.68ZM19.0766 18.48C17.8499 18.48 17.0499 18.7067 16.6766 19.16C16.3032 19.6133 16.1166 20.5333 16.1166 21.92V41.76C16.1166 42.6933 16.1966 43.4 16.3566 43.88C16.5166 44.36 16.8099 44.68 17.2366 44.84C17.6632 45 18.2899 45.08 19.1166 45.08C21.7299 45.08 23.6232 44.48 24.7966 43.28C25.9966 42.0533 26.5966 40.32 26.5966 38.08C26.5966 36.0267 26.0366 34.44 24.9166 33.32C23.8232 32.2 22.0099 31.64 19.4766 31.64H15.3566C15.3566 31.64 15.3566 31.5333 15.3566 31.32C15.3566 31.08 15.3566 30.96 15.3566 30.96H18.7966C20.3699 30.96 21.5832 30.6667 22.4366 30.08C23.2899 29.4667 23.8766 28.6667 24.1966 27.68C24.5166 26.6667 24.6766 25.5867 24.6766 24.44C24.6766 22.4667 24.2366 20.9867 23.3566 20C22.5032 18.9867 21.0766 18.48 19.0766 18.48ZM33.805 17.68C34.365 17.7067 35.0983 17.7333 36.005 17.76C36.9117 17.7867 37.805 17.8 38.685 17.8C39.9383 17.8 41.1383 17.7867 42.285 17.76C43.4317 17.7333 44.245 17.72 44.725 17.72C47.9517 17.72 50.365 18.4533 51.965 19.92C53.565 21.3867 54.365 23.28 54.365 25.6C54.365 26.56 54.205 27.5733 53.885 28.64C53.565 29.68 53.005 30.6533 52.205 31.56C51.4317 32.44 50.365 33.16 49.005 33.72C47.645 34.28 45.925 34.56 43.845 34.56H40.005V33.76H43.445C45.3383 33.76 46.7783 33.4 47.765 32.68C48.7783 31.96 49.4583 31.0133 49.805 29.84C50.1783 28.6667 50.365 27.4 50.365 26.04C50.365 23.5067 49.8583 21.6133 48.845 20.36C47.8583 19.1067 46.1517 18.48 43.725 18.48C42.4983 18.48 41.6983 18.7067 41.325 19.16C40.9517 19.6133 40.765 20.5333 40.765 21.92V41.76C40.765 42.72 40.8583 43.44 41.045 43.92C41.2583 44.4 41.6583 44.72 42.245 44.88C42.8317 45.04 43.685 45.1467 44.805 45.2V46C44.1117 45.9467 43.2317 45.92 42.165 45.92C41.0983 45.8933 40.0183 45.88 38.925 45.88C37.885 45.88 36.9117 45.8933 36.005 45.92C35.0983 45.92 34.365 45.9467 33.805 46V45.2C34.7117 45.1467 35.3917 45.04 35.845 44.88C36.325 44.72 36.645 44.4 36.805 43.92C36.965 43.44 37.045 42.72 37.045 41.76V21.92C37.045 20.9333 36.965 20.2133 36.805 19.76C36.645 19.28 36.325 18.96 35.845 18.8C35.3917 18.6133 34.7117 18.5067 33.805 18.48V17.68Z" fill="#232323"/>
</svg>
